<svg width="47" height="47" viewBox="0 0 47 47" fill="none" xmlns="http://www.w3.org/2000/svg">
<mask id="mask0_2103_8" style="mask-type:alpha" maskUnits="userSpaceOnUse" x="0" y="0" width="47" height="47">
<rect width="47" height="47" fill="#D9D9D9"/>
</mask>
<g mask="url(#mask0_2103_8)">
<path d="M23.2448 12.4036C25.6122 12.4036 27.6891 11.4762 29.4753 9.62146C31.2615 7.76671 32.1546 5.60996 32.1546 3.15122C32.1546 2.88118 32.1333 2.49744 32.0908 2C31.7789 2.04264 31.545 2.07817 31.3891 2.10659C29.2059 2.41927 27.2851 3.49233 25.6264 5.32571C23.9678 7.15914 23.1385 9.12048 23.1385 11.2097C23.1385 11.4513 23.174 11.8493 23.2448 12.4036ZM31.7293 45C33.4163 45 35.2804 43.8417 37.3218 41.5251C39.3633 39.2084 40.9226 36.4867 42 33.3599C37.9881 31.2849 35.9822 28.3074 35.9822 24.4274C35.9822 21.1869 37.6054 18.4155 40.8517 16.1131C38.5977 13.2847 35.6207 11.8706 31.9207 11.8706C30.3613 11.8706 28.9366 12.1051 27.6466 12.5741L26.8385 12.8726L25.754 13.299C25.0452 13.569 24.4002 13.7041 23.819 13.7041C23.3653 13.7041 22.7699 13.5477 22.0328 13.235L21.2034 12.8939L20.4167 12.5741C19.2684 12.0909 18.0351 11.8493 16.7167 11.8493C13.1868 11.8493 10.3516 13.0431 8.21092 15.4308C6.07029 17.8185 5 20.9666 5 24.875C5 30.3753 6.71531 35.4563 10.146 40.118C12.5276 43.3727 14.7037 45 16.6741 45C17.5106 45 18.3399 44.8366 19.1621 44.5097L20.204 44.0833L21.0334 43.7848C22.1958 43.3727 23.2661 43.1666 24.2442 43.1666C25.2791 43.1666 26.4699 43.4296 27.8167 43.9554L28.4759 44.2112C29.8509 44.7371 30.9355 45 31.7293 45Z" fill="white"/>
</g>
</svg>
