<svg width="10" height="9" viewBox="0 0 10 9" fill="none" xmlns="http://www.w3.org/2000/svg">
<g id="Group 109">
<path id="Shape" fill-rule="evenodd" clip-rule="evenodd" d="M4.65922 0.0837402C3.46052 0.0837402 3.31009 0.0889815 2.83929 0.110407C2.36941 0.131923 2.04868 0.206313 1.76804 0.315461C1.47774 0.428195 1.23149 0.578998 0.986164 0.824419C0.74065 1.06975 0.589848 1.316 0.476746 1.6062C0.367322 1.88693 0.292841 2.20776 0.271692 2.67745C0.250634 3.14825 0.245117 3.29878 0.245117 4.49747C0.245117 5.69617 0.25045 5.84614 0.271783 6.31694C0.293392 6.78682 0.367782 7.10755 0.476838 7.38819C0.589664 7.67848 0.740467 7.92473 0.985888 8.17006C1.23113 8.41558 1.47738 8.56675 1.76749 8.67948C2.04831 8.78863 2.36913 8.86302 2.83892 8.88453C3.30972 8.90596 3.46006 8.9112 4.65866 8.9112C5.85745 8.9112 6.00743 8.90596 6.47822 8.88453C6.9481 8.86302 7.2692 8.78863 7.55003 8.67948C7.84023 8.56675 8.08611 8.41558 8.33135 8.17006C8.57686 7.92473 8.72766 7.67848 8.84077 7.38828C8.94927 7.10755 9.02375 6.78673 9.04582 6.31703C9.06697 5.84623 9.07249 5.69617 9.07249 4.49747C9.07249 3.29878 9.06697 3.14834 9.04582 2.67754C9.02375 2.20766 8.94927 1.88693 8.84077 1.60629C8.72766 1.316 8.57686 1.06975 8.33135 0.824419C8.08583 0.578906 7.84032 0.428103 7.54975 0.315461C7.26837 0.206313 6.94746 0.131923 6.47758 0.110407C6.00678 0.0889815 5.8569 0.0837402 4.65784 0.0837402H4.65922ZM4.51206 0.879063H4.51209L4.6592 0.879106C5.83766 0.879106 5.97734 0.883336 6.44271 0.904485C6.87305 0.924163 7.10661 0.99607 7.26219 1.05648C7.46817 1.13648 7.61502 1.23211 7.76941 1.38659C7.92389 1.54107 8.01952 1.6882 8.0997 1.89417C8.16011 2.04957 8.23211 2.28313 8.2517 2.71347C8.27285 3.17875 8.27744 3.31852 8.27744 4.49643C8.27744 5.67435 8.27285 5.81412 8.2517 6.2794C8.23202 6.70974 8.16011 6.9433 8.0997 7.0987C8.0197 7.30467 7.92389 7.45133 7.76941 7.60572C7.61492 7.7602 7.46826 7.85583 7.26219 7.93583C7.10679 7.99652 6.87305 8.06825 6.44271 8.08792C5.97743 8.10907 5.83766 8.11367 4.6592 8.11367C3.48064 8.11367 3.34096 8.10907 2.87568 8.08792C2.44534 8.06806 2.21178 7.99615 2.05611 7.93574C1.85013 7.85574 1.70301 7.76011 1.54853 7.60563C1.39405 7.45115 1.29842 7.30439 1.21823 7.09833C1.15782 6.94293 1.08582 6.70937 1.06624 6.27903C1.04509 5.81375 1.04086 5.67398 1.04086 4.49533C1.04086 3.31668 1.04509 3.17765 1.06624 2.71237C1.08591 2.28203 1.15782 2.04847 1.21823 1.89288C1.29823 1.68691 1.39405 1.53979 1.54853 1.38531C1.70301 1.23083 1.85013 1.13519 2.05611 1.05501C2.21169 0.994323 2.44534 0.9226 2.87568 0.90283C3.28285 0.884439 3.44064 0.878922 4.26325 0.878002V0.879106C4.34011 0.878986 4.42278 0.879023 4.512 0.879063H4.51203H4.51206ZM6.48553 2.14165C6.48553 1.84915 6.72277 1.61219 7.01518 1.61219V1.61201C7.30759 1.61201 7.54483 1.84924 7.54483 2.14165C7.54483 2.43406 7.30759 2.6713 7.01518 2.6713C6.72277 2.6713 6.48553 2.43406 6.48553 2.14165ZM4.65949 2.23113C3.40778 2.23118 2.39295 3.24604 2.39295 4.49777C2.39295 5.74952 3.40783 6.76394 4.65958 6.76394C5.91134 6.76394 6.92585 5.74952 6.92585 4.49777C6.92585 3.24601 5.91124 2.23113 4.65949 2.23113ZM6.13051 4.49784C6.13051 3.68525 5.47176 3.0266 4.65927 3.0266C3.84668 3.0266 3.18802 3.68525 3.18802 4.49784C3.18802 5.31033 3.84668 5.96908 4.65927 5.96908C5.47176 5.96908 6.13051 5.31033 6.13051 4.49784Z" fill="#969696"/>
</g>
</svg>
