<svg width="65" height="65" viewBox="0 0 65 65" fill="none" xmlns="http://www.w3.org/2000/svg">
<path id="Union" fill-rule="evenodd" clip-rule="evenodd" d="M59.7723 22.3634H4.94349V54.0422C4.94349 57.4068 7.67101 60.1343 11.0356 60.1343H53.6802C57.0447 60.1343 59.7723 57.4068 59.7723 54.0422V22.3634ZM0.0698242 22.3634V17.4897V11.3976C0.0698242 5.34142 4.97936 0.431885 11.0356 0.431885H17.1277H47.5881H53.6802C59.7364 0.431885 64.6459 5.34142 64.6459 11.3976V17.4897V22.3634V54.0422C64.6459 60.0984 59.7364 65.008 53.6802 65.008H11.0356C4.97936 65.008 0.0698242 60.0985 0.0698242 54.0422V22.3634ZM25.6568 35.1568C25.6568 33.811 26.7478 32.72 28.0936 32.72H48.8067C50.1525 32.72 51.2435 33.811 51.2435 35.1568C51.2435 36.5027 50.1525 37.5937 48.8067 37.5937H28.0936C26.7478 37.5937 25.6568 36.5027 25.6568 35.1568ZM28.0936 44.295C26.7478 44.295 25.6568 45.386 25.6568 46.7318C25.6568 48.0776 26.7478 49.1686 28.0936 49.1686H48.8067C50.1525 49.1686 51.2435 48.0776 51.2435 46.7318C51.2435 45.386 50.1525 44.295 48.8067 44.295H28.0936Z" fill="url(#paint0_linear_29_96)"/>
<defs>
<linearGradient id="paint0_linear_29_96" x1="45.7605" y1="58.3067" x2="11.6448" y2="12.0068" gradientUnits="userSpaceOnUse">
<stop stop-color="#6D9CD8"/>
<stop offset="1" stop-color="#95BEF1"/>
</linearGradient>
</defs>
</svg>
